<?xml version="1.0" standalone="no"?><!-- Generator: Gravit.io --><svg xmlns="http://www.w3.org/2000/svg" xmlns:xlink="http://www.w3.org/1999/xlink" style="isolation:isolate" viewBox="0 0 128 128" width="128" height="128"><g opacity="0.2"><path d=" M 119 118 C 118.995 121.313 94.372 123.999 64 123.999 C 33.628 123.999 9.005 121.313 9 118 C 8.997 115.856 19.479 113.875 36.497 112.803 C 53.516 111.731 74.484 111.731 91.503 112.803 C 108.521 113.875 119.003 115.856 119 118 L 119 118 Z " fill="none"/></g><g id="g2036"><g id="g3712" style="opacity:0.4;"><g opacity="0.4"><rect x="103.789" y="116" width="14.211" height="5" transform="matrix(1,0,0,1,0,0)" fill="none"/></g><g opacity="0.4"><rect x="10" y="116" width="14.211" height="5" transform="matrix(-1,0,0,-1,34.211,237)" fill="none"/></g><g opacity="0.4"><rect x="24.211" y="116" width="79.579" height="5" transform="matrix(1,0,0,1,0,0)" fill="none"/></g></g></g><defs><linearGradient id="_lgradient_0" x1="0.047471525097487255" y1="0.007793389730350819" x2="0.9528264133842199" y2="0.9743494243115244"><stop offset="0%" style="stop-color:#AC7339"/><stop offset="50.25025075862418%" style="stop-color:#8C5D2E"/><stop offset="100%" style="stop-color:#583919"/><stop offset="100%" style="stop-color:#553718"/></linearGradient></defs><path d="M 18.5 15.5 L 109.5 15.5 C 112.811 15.5 115.5 18.189 115.5 21.5 L 115.5 112.5 C 115.5 115.811 112.811 118.5 109.5 118.5 L 18.5 118.5 C 15.189 118.5 12.5 115.811 12.5 112.5 L 12.5 21.5 C 12.5 18.189 15.189 15.5 18.5 15.5 Z" style="stroke:none;fill:url(#_lgradient_0);stroke-miterlimit:10;"/><defs><linearGradient id="_lgradient_1" x1="0.49999975745249503" y1="-0.013513534921067327" x2="0.49999975745249486" y2="1.0135138158415842"><stop offset="0%" style="stop-color:#FFFFFF"/><stop offset="6.316455%" style="stop-color:rgba(255,255,255,0.23529412)"/><stop offset="95.056331%" style="stop-color:rgba(255,255,255,0.15686275)"/><stop offset="100%" style="stop-color:rgba(255,255,255,0.39215687)"/></linearGradient><linearGradient id="_lgradient_2" x1="0.49999975745249503" y1="-0.013513534921067327" x2="0.49999975745249486" y2="1.0135138158415842"><stop offset="0%" style="stop-color:#FFFFFF"/><stop offset="6.316455%" style="stop-color:rgba(255,255,255,0.23529412)"/><stop offset="95.056331%" style="stop-color:rgba(255,255,255,0.15686275)"/><stop offset="100%" style="stop-color:rgba(255,255,255,0.39215687)"/></linearGradient></defs><g style="mix-blend-mode:normal;" opacity="0.3"><path d="M 18.5 16.5 L 109.5 16.5 C 112.26 16.5 114.5 18.74 114.5 21.5 L 114.5 112.5 C 114.5 115.26 112.26 117.5 109.5 117.5 L 18.5 117.5 C 15.74 117.5 13.5 115.26 13.5 112.5 L 13.5 21.5 C 13.5 18.74 15.74 16.5 18.5 16.5 Z" style="fill:none;stroke:#000000;stroke-width:0.99999994;stroke-linecap:round;stroke-linejoin:round;"/></g><g style="mix-blend-mode:normal;" opacity="0.5"><path d="M 18.5 15.5 L 109.5 15.5 C 112.811 15.5 115.5 18.189 115.5 21.5 L 115.5 112.5 C 115.5 115.811 112.811 118.5 109.5 118.5 L 18.5 118.5 C 15.189 118.5 12.5 115.811 12.5 112.5 L 12.5 21.5 C 12.5 18.189 15.189 15.5 18.5 15.5 Z" style="fill:none;stroke:#382B1C;stroke-width:1;stroke-linecap:round;stroke-linejoin:round;"/></g><g opacity="0.1"><path d=" M 60 40 C 59.28 40 58.68 42.78 58.328 46.754 C 56.466 47.262 54.678 48.013 53.012 48.988 C 49.941 46.414 47.542 44.861 47.031 45.371 L 41.371 51.031 C 40.861 51.542 42.414 53.941 44.988 57.012 C 44.02 58.679 43.276 60.467 42.773 62.328 C 38.789 62.68 36 63.279 36 64 L 36 72 C 36 72.72 38.78 73.32 42.754 73.672 C 43.259 75.538 44.007 77.33 44.98 79 C 42.412 82.066 40.861 84.459 41.371 84.969 L 47.031 90.629 C 47.541 91.138 49.931 89.591 52.992 87.027 C 54.667 87.992 56.461 88.731 58.328 89.227 C 58.68 93.211 59.279 96 60 96 L 68 96 C 68.72 96 69.32 93.22 69.672 89.246 C 71.534 88.738 73.322 87.987 74.988 87.012 C 78.059 89.586 80.458 91.139 80.969 90.629 L 86.629 84.969 C 87.139 84.458 85.586 82.059 83.012 78.988 C 83.98 77.321 84.724 75.533 85.227 73.672 C 89.211 73.32 92 72.721 92 72 L 92 64 C 92 63.28 89.22 62.68 85.246 62.328 C 84.741 60.462 83.993 58.67 83.02 57 C 85.588 53.934 87.139 51.541 86.629 51.031 L 80.969 45.371 C 80.459 44.862 78.069 46.409 75.008 48.973 C 73.333 48.008 71.539 47.269 69.672 46.773 C 69.32 42.789 68.721 40 68 40 L 60 40 L 60 40 Z  M 64 58 C 69.523 58 74 62.477 74 68 C 74 73.523 69.523 78 64 78 C 58.477 78 54 73.523 54 68 C 54 62.477 58.477 58 64 58 Z " fill="rgb(255,255,255)"/></g><path d=" M 60 39 C 59.28 39 58.68 41.78 58.328 45.754 C 56.466 46.262 54.678 47.013 53.012 47.988 C 49.941 45.414 47.542 43.861 47.031 44.371 L 41.371 50.031 C 40.861 50.542 42.414 52.941 44.988 56.012 C 44.02 57.679 43.276 59.467 42.773 61.328 C 38.789 61.68 36 62.279 36 63 L 36 71 C 36 71.72 38.78 72.32 42.754 72.672 C 43.259 74.538 44.007 76.33 44.98 78 C 42.412 81.066 40.861 83.459 41.371 83.969 L 47.031 89.629 C 47.541 90.138 49.931 88.591 52.992 86.027 C 54.667 86.992 56.461 87.731 58.328 88.227 C 58.68 92.211 59.279 95 60 95 L 68 95 C 68.72 95 69.32 92.22 69.672 88.246 C 71.534 87.738 73.322 86.987 74.988 86.012 C 78.059 88.586 80.458 90.139 80.969 89.629 L 86.629 83.969 C 87.139 83.458 85.586 81.059 83.012 77.988 C 83.98 76.321 84.724 74.533 85.227 72.672 C 89.211 72.32 92 71.721 92 71 L 92 63 C 92 62.28 89.22 61.68 85.246 61.328 C 84.741 59.462 83.993 57.67 83.02 56 C 85.588 52.934 87.139 50.541 86.629 50.031 L 80.969 44.371 C 80.459 43.862 78.069 45.409 75.008 47.973 C 73.333 47.008 71.539 46.269 69.672 45.773 C 69.32 41.789 68.721 39 68 39 L 60 39 L 60 39 Z  M 64 57 C 69.523 57 74 61.477 74 67 C 74 72.523 69.523 77 64 77 C 58.477 77 54 72.523 54 67 C 54 61.477 58.477 57 64 57 Z " fill="rgb(79,53,25)"/><g opacity="0.05"><path d=" M 60.082 39.5 C 60.055 39.53 60.003 39.594 59.943 39.713 C 59.813 39.972 59.662 40.416 59.525 40.99 C 59.252 42.139 59.013 43.814 58.838 45.787 C 58.818 46.002 58.667 46.182 58.459 46.238 C 56.642 46.734 54.892 47.473 53.266 48.424 C 53.078 48.533 52.842 48.512 52.676 48.373 C 51.151 47.095 49.793 46.072 48.783 45.449 C 48.278 45.138 47.855 44.926 47.578 44.834 C 47.452 44.792 47.369 44.783 47.328 44.781 L 41.783 50.328 C 41.785 50.369 41.794 50.452 41.836 50.578 C 41.928 50.855 42.138 51.278 42.449 51.783 C 43.072 52.793 44.095 54.151 45.373 55.676 C 45.512 55.842 45.532 56.076 45.424 56.264 C 44.479 57.891 43.75 59.643 43.26 61.459 C 43.203 61.668 43.022 61.819 42.807 61.838 C 40.828 62.013 39.148 62.252 37.996 62.525 C 37.42 62.662 36.975 62.811 36.715 62.941 C 36.596 63.001 36.53 63.053 36.5 63.08 L 36.5 70.918 C 36.53 70.945 36.594 70.997 36.713 71.057 C 36.972 71.187 37.416 71.338 37.99 71.475 C 39.139 71.748 40.814 71.987 42.787 72.162 C 43.003 72.181 43.184 72.332 43.24 72.541 C 43.733 74.362 44.467 76.116 45.416 77.746 C 45.525 77.934 45.505 78.17 45.365 78.336 C 44.09 79.858 43.071 81.213 42.449 82.221 C 42.138 82.725 41.927 83.148 41.836 83.424 C 41.794 83.55 41.785 83.631 41.783 83.672 L 47.328 89.219 C 47.369 89.217 47.45 89.208 47.576 89.166 C 47.852 89.075 48.274 88.863 48.777 88.553 C 49.784 87.932 51.136 86.915 52.656 85.643 C 52.822 85.503 53.057 85.482 53.244 85.59 C 54.878 86.531 56.635 87.257 58.457 87.74 C 58.667 87.796 58.819 87.977 58.838 88.193 C 59.013 90.172 59.252 91.852 59.525 93.004 C 59.662 93.58 59.811 94.025 59.941 94.285 C 60.001 94.404 60.053 94.47 60.08 94.5 L 67.918 94.5 C 67.945 94.47 67.997 94.406 68.057 94.287 C 68.187 94.028 68.338 93.584 68.475 93.01 C 68.748 91.861 68.987 90.186 69.162 88.213 C 69.182 87.998 69.333 87.818 69.541 87.762 C 71.358 87.266 73.108 86.527 74.734 85.576 C 74.922 85.467 75.158 85.488 75.324 85.627 C 76.849 86.905 78.207 87.928 79.217 88.551 C 79.722 88.862 80.145 89.074 80.422 89.166 C 80.548 89.208 80.631 89.217 80.672 89.219 L 86.217 83.672 C 86.215 83.631 86.206 83.548 86.164 83.422 C 86.072 83.145 85.862 82.722 85.551 82.217 C 84.928 81.207 83.905 79.849 82.627 78.324 C 82.488 78.158 82.468 77.924 82.576 77.736 C 83.521 76.109 84.25 74.357 84.74 72.541 C 84.797 72.332 84.978 72.181 85.193 72.162 C 87.172 71.987 88.852 71.748 90.004 71.475 C 90.58 71.338 91.025 71.189 91.285 71.059 C 91.404 70.999 91.47 70.947 91.5 70.92 L 91.5 63.082 C 91.47 63.055 91.406 63.003 91.287 62.943 C 91.028 62.813 90.584 62.662 90.01 62.525 C 88.861 62.252 87.186 62.013 85.213 61.838 C 84.997 61.819 84.816 61.668 84.76 61.459 C 84.267 59.638 83.533 57.884 82.584 56.254 C 82.475 56.066 82.495 55.83 82.635 55.664 C 83.91 54.142 84.929 52.787 85.551 51.779 C 85.862 51.275 86.073 50.852 86.164 50.576 C 86.206 50.45 86.215 50.369 86.217 50.328 L 80.672 44.781 C 80.631 44.783 80.55 44.792 80.424 44.834 C 80.148 44.925 79.726 45.137 79.223 45.447 C 78.216 46.068 76.864 47.085 75.344 48.357 C 75.178 48.497 74.943 48.518 74.756 48.41 C 73.122 47.469 71.365 46.743 69.543 46.26 C 69.333 46.204 69.181 46.023 69.162 45.807 C 68.987 43.828 68.748 42.148 68.475 40.996 C 68.338 40.42 68.189 39.975 68.059 39.715 C 67.999 39.596 67.947 39.53 67.92 39.5 L 60.082 39.5 Z " fill="none" vector-effect="non-scaling-stroke" stroke-width="1" stroke="rgb(0,0,0)" stroke-linejoin="miter" stroke-linecap="butt" stroke-miterlimit="4"/></g><g opacity="0.05"><linearGradient id="_lgradient_3" x1="103.40376681034589%" y1="101.41132878816816%" x2="103.40376681034589%" y2="48.142729596311405%"><stop offset="0%" stop-opacity="1" style="stop-color:rgb(0,0,0)"/><stop offset="100%" stop-opacity="0" style="stop-color:rgb(0,0,0)"/></linearGradient><path d=" M 63.998 77.495 C 70.184 77.693 75.481 71.514 74.344 65.421 C 73.605 59.482 67.131 55.199 61.384 56.867 C 55.56 58.196 51.946 65.058 54.167 70.617 C 55.599 74.669 59.699 77.556 63.998 77.495 Z " fill="none" vector-effect="non-scaling-stroke" stroke-width="1" stroke="url(#_lgradient_3)" stroke-linejoin="miter" stroke-linecap="butt" stroke-miterlimit="4"/></g></svg>